<svg xmlns="http://www.w3.org/2000/svg" width="180" height="118" fill="none"><path stroke="#000" stroke-width="9" d="M167.5 57c0 10.809-2.1 19.117-5.681 25.549-3.566 6.404-8.752 11.222-15.386 14.836C132.947 104.732 113.697 107 91 107c-22.68 0-42.737-2.261-57.016-9.66-7.04-3.647-12.584-8.498-16.4-14.905C13.762 76.018 11.5 67.749 11.5 57c0-10.756 2.264-18.69 6.02-24.63 3.747-5.922 9.205-10.225 16.222-13.344C48.052 12.663 68.118 11.5 91 11.5c22.904 0 42.163 1.17 55.68 7.49 6.603 3.087 11.701 7.35 15.197 13.266 3.52 5.953 5.623 13.926 5.623 24.744Z"/><path fill="#000" d="M30.352 75V51h8.736l.24 4.944c.704-1.76 1.76-3.104 3.168-4.032 1.408-.928 3.088-1.392 5.04-1.392 1.792 0 3.312.416 4.56 1.248 1.28.8 2.192 1.984 2.736 3.552.512-1.056 1.152-1.936 1.92-2.64a8.07 8.07 0 0 1 2.736-1.584 9.755 9.755 0 0 1 3.36-.576c1.6 0 2.976.32 4.128.96 1.184.608 2.096 1.536 2.736 2.784.64 1.216.96 2.72.96 4.512V75h-9.696V61.176c0-1.28-.208-2.16-.624-2.64-.416-.512-1.008-.768-1.776-.768-.64 0-1.216.16-1.728.48-.48.32-.848.832-1.104 1.536-.256.672-.384 1.52-.384 2.544V75h-9.696V61.176c0-1.28-.208-2.16-.624-2.64-.416-.512-1.008-.768-1.776-.768-.608 0-1.168.16-1.68.48-.48.32-.864.832-1.152 1.536-.256.672-.384 1.536-.384 2.592V75h-9.696Zm58.153-15.12c0-.896-.24-1.6-.72-2.112-.448-.544-1.12-.816-2.016-.816-.832 0-1.552.224-2.16.672-.576.448-.944 1.296-1.104 2.544l-8.208-1.488c.32-2.496 1.488-4.48 3.504-5.952 2.016-1.472 4.896-2.208 8.64-2.208 2.56 0 4.704.368 6.432 1.104 1.76.704 3.072 1.744 3.936 3.12.896 1.376 1.344 3.024 1.344 4.944v8.064c0 1.28.576 1.92 1.728 1.92.48 0 .848-.064 1.104-.192l-.48 5.232c-1.056.512-2.368.768-3.936.768-1.376 0-2.592-.208-3.648-.624-1.056-.448-1.888-1.088-2.496-1.92-.608-.832-.912-1.92-.912-3.264v-.384l.96-.144c0 1.28-.4 2.4-1.2 3.36-.768.96-1.792 1.696-3.072 2.208-1.248.512-2.64.768-4.176.768-1.664 0-3.088-.256-4.272-.768-1.184-.512-2.096-1.248-2.736-2.208-.608-.96-.912-2.128-.912-3.504 0-1.76.528-3.2 1.584-4.32 1.088-1.12 2.72-1.888 4.896-2.304l8.688-1.824-.048 4.08-3.552.816c-.8.16-1.392.432-1.776.816-.352.352-.528.848-.528 1.488 0 .608.208 1.088.624 1.44.416.32.928.48 1.536.48.416 0 .8-.064 1.152-.192.352-.128.656-.32.912-.576a2.6 2.6 0 0 0 .672-.96c.16-.384.24-.848.24-1.392V59.88Zm25.439 15.6c-2.368 0-4.608-.352-6.72-1.056-2.112-.704-3.92-1.744-5.424-3.12l3.888-5.136c.864.864 1.968 1.616 3.312 2.256 1.376.64 2.816.96 4.32.96.768 0 1.408-.096 1.92-.288.544-.192.816-.528.816-1.008 0-.32-.144-.576-.432-.768-.256-.224-.816-.416-1.68-.576l-2.496-.48c-3.264-.64-5.584-1.568-6.96-2.784-1.344-1.248-2.016-2.88-2.016-4.896 0-1.312.4-2.576 1.2-3.792.832-1.248 2.128-2.272 3.888-3.072 1.792-.8 4.096-1.2 6.912-1.2 2.464 0 4.656.336 6.576 1.008 1.952.64 3.504 1.568 4.656 2.784l-3.792 4.992c-.864-.832-1.952-1.488-3.264-1.968-1.312-.48-2.56-.72-3.744-.72-.608 0-1.12.048-1.536.144-.416.096-.736.24-.96.432-.192.16-.288.384-.288.672 0 .32.176.608.528.864.384.224 1.072.432 2.064.624l3.84.672c2.528.448 4.368 1.28 5.52 2.496 1.152 1.216 1.728 2.704 1.728 4.464 0 1.568-.416 2.992-1.248 4.272-.832 1.28-2.128 2.304-3.888 3.072-1.728.768-3.968 1.152-6.72 1.152Zm15.127-.48V41.112h9.696v14.544c.672-1.664 1.648-2.928 2.928-3.792 1.312-.896 2.848-1.344 4.608-1.344 1.632 0 3.024.32 4.176.96 1.184.608 2.096 1.536 2.736 2.784.64 1.216.96 2.72.96 4.512V75h-9.696V61.368c0-1.376-.224-2.32-.672-2.832-.416-.512-1.008-.768-1.776-.768-.64 0-1.216.16-1.728.48-.48.32-.864.832-1.152 1.536-.256.672-.384 1.536-.384 2.592V75h-9.696Z"/></svg>